<?xml version="1.0" encoding="utf-8"?>
<!-- Uploaded to SVGRepo https://www.svgrepo.com -->
<!DOCTYPE svg PUBLIC "-//W3C//DTD SVG 1.1//EN" "http://www.w3.org/Graphics/SVG/1.1/DTD/svg11.dtd">
<svg width="1000px" height="1000px" viewBox="0 0 1000 1000" version="1.1" xmlns="http://www.w3.org/2000/svg" xmlns:xlink="http://www.w3.org/1999/xlink" x="0px" y="0px" enable-background="new 0 0 1000 1000" xml:space="preserve">
<metadata> Svg Vector Icons : http://www.onlinewebfonts.com/icon </metadata>
<g><g transform="translate(0.000000,511.000000) scale(0.100000,-0.100000)"><path d="M1961.8,4730.8C1225.5,4673.4,208.1,4432,119,4295.4c-41.6-61.4-15.8-221.7,85.1-532.4c235.5-738.3,732.3-1415.2,1405.3-1921.9c534.4-401.8,1332.1-762,1945.6-878.8c124.7-23.8,239.5-47.5,255.3-51.5c23.8-7.9,25.7-91.1,15.8-508.7C3810.4-274.8,3759-732,3642.2-1256.5l-51.5-227.6l-146.5-65.3c-172.2-77.2-376.1-255.3-479-417.6c-39.6-59.4-132.6-174.2-209.8-253.3c-372.1-386-910.5-536.4-1264.8-356.3c-108.9,53.4-245.4,186.1-304.8,291c-81.1,140.5-102.9,160.3-186,160.3c-57.4,0-83.1-11.9-114.8-51.5c-57.4-73.2-51.5-120.8,33.6-261.3c205.9-344.4,516.6-518.6,914.4-518.6c285,0,516.6,69.3,793.7,231.6c162.3,93,475,395.9,574,552.2c99,156.3,227.6,275.1,370.1,340.4c99,47.5,136.6,53.4,320.6,53.4c182.1,0,221.7-5.9,316.7-51.5c130.6-61.4,261.3-188,342.4-332.5c33.7-57.4,150.4-196,259.3-308.8c225.6-229.6,350.3-308.8,645.2-407.7c158.3-53.4,225.6-65.3,427.5-73.2c354.3-13.9,589.8,47.5,904.5,235.5c170.2,104.9,449.3,380,578,572c166.3,251.4,348.3,358.3,625.4,372.1c302.9,13.9,504.7-87.1,667-332.5c110.8-170.2,114.8-176.1,174.2-190c61.4-15.8,148.4,41.6,174.2,116.8c45.5,124.7-255.3,504.7-483,613.6c-504.7,241.5-1092.6,81.2-1403.3-384c-43.5-65.3-120.7-164.3-170.2-221.7c-104.9-114.8-97-118.8-192,85.1C6431-1389.2,6227.1-336.2,6227.1,647.6v271.2l144.5,23.8c338.5,57.4,872.9,241.5,1258.8,433.5c918.4,463.2,1583.4,1110.4,1981.3,1931.8c124.7,257.3,241.5,595.8,277.1,807.5c37.6,213.8,5.9,239.5-510.7,380c-609.6,168.2-1078.7,233.6-1676.5,235.5c-1051,2-1696.3-235.5-2491.9-922.4c-108.9-95-203.9-172.2-209.8-172.2c-5.9,0-100.9,77.2-209.8,172.2c-611.6,528.5-1128.2,777.9-1819,884.8C2777.2,4722.9,2159.7,4746.7,1961.8,4730.8z M2848.5,4396.3c736.3-97,1270.7-374.1,1959.5-1017.4c172.2-162.3,211.8-162.3,384,0c393.9,366.2,829.3,673,1150,805.6c617.5,257.3,1389.5,310.8,2286.1,160.3c229.6-37.6,783.8-170.2,890.7-213.8c63.3-23.8,63.3-27.7-25.7-292.9c-164.3-486.9-435.4-928.3-811.5-1318.2c-362.2-378-704.6-621.5-1237.1-884.7c-819.4-405.8-1670.5-546.3-2313.8-384c-122.7,29.7-138.6,29.7-261.3,0c-898.6-225.6-2216.8,156.4-3176.8,920.4c-225.6,180.1-548.3,518.6-716.5,752.1c-213.8,298.9-510.7,934.2-532.4,1144c-5.9,37.6,7.9,51.5,73.2,75.2c253.3,89.1,896.6,223.7,1256.9,261.3C2054.8,4432,2603,4428,2848.5,4396.3z M5255.3,912.8c91.1-15.8,275.1-29.7,407.7-29.7h241.5l13.8-360.2c29.7-819.4,118.8-1433,298.9-2054.5c79.2-269.2,221.7-631.4,318.7-809.5c79.2-144.5,87.1-130.6-120.7-217.7c-340.4-140.5-688.8-124.7-1058.9,51.5c-118.8,55.4-182.1,104.9-320.7,247.4c-95,97-199.9,225.7-235.5,287c-152.4,265.2-433.5,457.2-736.3,504.7c-116.8,19.8-150.4,31.7-142.5,53.4c23.8,61.3,108.9,520.5,136.6,734.3c45.5,354.3,69.3,665.1,83.1,1130.2l13.8,427.5l289,11.9c158.3,7.9,342.4,25.7,407.7,41.6c65.3,15.8,146.5,25.7,178.1,19.8C5063.3,944.5,5164.3,928.6,5255.3,912.8z"/><path d="M3792.6-3008.2c-370.1-59.4-629.4-213.8-807.5-482.9c-320.6-479-756.1-734.3-1209.4-708.6c-259.3,15.8-463.2,140.5-593.8,364.2c-81.2,138.5-110.8,166.3-180.1,166.3c-71.3,0-132.6-49.5-148.4-120.7c-33.7-154.4,245.4-496.8,506.7-621.5c599.7-285,1409.3,31.7,1876.4,732.3c93,140.5,195.9,229.6,354.3,302.8c97,45.5,138.6,53.4,300.9,53.4c162.3,0,203.9-7.9,298.9-51.4c146.5-69.3,261.3-174.2,346.4-320.7c99-170.2,352.3-437.4,516.6-548.3c364.2-243.4,863-332.5,1274.7-227.6c170.2,45.5,391.9,148.4,538.4,255.3c154.4,110.8,401.8,364.2,492.9,506.7c93,146.5,251.4,285,387.9,340.4c87.1,33.7,154.4,43.5,291,45.5c156.4,0,194-7.9,300.8-57.4c136.6-63.3,292.9-211.8,360.2-344.4c23.7-45.5,59.4-91.1,79.2-102.9c91-47.5,203.9-4,227.6,91c31.7,126.7-209.8,459.2-425.5,585.9c-245.4,144.5-599.7,184.1-870.9,97c-233.6-75.2-465.1-255.3-607.7-477c-95-146.5-364.2-409.7-504.7-492.9c-388-227.6-823.4-239.5-1241-35.6c-132.6,65.3-197.9,112.8-322.6,241.5c-85.1,87.1-184.1,205.9-217.7,265.2c-144.5,251.4-409.7,459.2-657.1,512.6C4036.1-3012.2,3857.9-2998.3,3792.6-3008.2z"/></g></g>
</svg>